<svg width="20" height="27" viewBox="0 0 20 27" fill="none" xmlns="http://www.w3.org/2000/svg">
<path fill-rule="evenodd" clip-rule="evenodd" d="M18.9204 6.48979L13.4043 0.973728C12.7776 0.349196 11.9385 0 11.058 0H3.31482C1.4839 0 0 1.4839 0 3.31482L0.000336661 23.2037C0.000336661 25.0347 1.48424 26.5186 3.31516 26.5186H16.5741C18.405 26.5186 19.8889 25.0347 19.8889 23.2037V8.83089C19.8889 7.95039 19.5419 7.11132 18.9204 6.48979ZM11.6019 1.76514C11.8337 1.84625 12.0507 1.96434 12.2296 2.14319L17.7457 7.65925C17.9259 7.83644 18.045 8.05398 18.1227 8.28705H12.4306C11.9748 8.28705 11.6019 7.91413 11.6019 7.45834V1.76514ZM18.2315 23.2037C18.2315 24.1174 17.4877 24.8611 16.5741 24.8611H3.31482C2.40117 24.8611 1.65741 24.1174 1.65741 23.2037V3.31482C1.65741 2.40117 2.40117 1.65741 3.31482 1.65741H9.94446V7.45834C9.94446 8.83089 11.058 9.94446 12.4306 9.94446H18.2315V23.2037ZM9.35919 11.8453L5.21566 15.9888C4.89195 16.3125 4.89195 16.8372 5.21566 17.1604C5.53937 17.4836 6.06405 17.4841 6.38724 17.1604L9.11575 14.4298V20.7176C9.11575 21.1757 9.48639 21.5463 9.94446 21.5463C10.4025 21.5463 10.7732 21.1757 10.7732 20.7176V14.4298L13.5022 17.1589C13.6633 17.3199 13.8756 17.4028 14.088 17.4028C14.3003 17.4028 14.5121 17.3219 14.6738 17.16C14.9975 16.8363 14.9975 16.3116 14.6738 15.9884L10.5302 11.8449C10.2086 11.519 9.68031 11.519 9.35919 11.8453Z" fill="#174874"/>
</svg>
