<svg width="25" height="22" viewBox="0 0 25 22" fill="none" xmlns="http://www.w3.org/2000/svg">
<path d="M23.9947 10.8503C23.9947 11.6004 23.3696 12.188 22.6612 12.188H21.3277L21.3569 18.8597C21.3569 18.9763 21.3485 19.0847 21.336 19.1972V19.8723C21.336 20.7932 20.5901 21.5392 19.6692 21.5392H19.0024C18.9566 21.5392 18.9107 21.5017 18.8649 21.535C18.8065 21.5017 18.7482 21.5392 18.6899 21.5392H16.3354C15.4144 21.5392 14.6685 20.7932 14.6685 19.8723V16.2051C14.6685 15.4676 14.0726 14.8716 13.335 14.8716H10.668C9.93042 14.8716 9.33451 15.4676 9.33451 16.2051V19.8723C9.33451 20.7932 8.58859 21.5392 7.66764 21.5392H5.33818C5.27567 21.5392 5.21316 21.535 5.15065 21.5308C5.10065 21.535 5.05064 21.5392 5.00063 21.5392H4.33388C3.41335 21.5392 2.667 20.7932 2.667 19.8723V15.205C2.667 15.1675 2.66825 15.1258 2.67075 15.0883V12.188H1.33559C0.584241 12.188 0 11.6004 0 10.8503C0 10.4753 0.125182 10.1419 0.417136 9.85018L11.1014 0.537167C11.3931 0.24488 11.7265 0.203125 12.0182 0.203125C12.3099 0.203125 12.6433 0.286636 12.8975 0.495412L23.5363 9.85018C23.8697 10.1419 24.0405 10.4753 23.9947 10.8503Z" fill="#383F42"/>
</svg>
