<svg width="19" height="22" viewBox="0 0 19 22" fill="none" xmlns="http://www.w3.org/2000/svg">
<path d="M0.639963 8.8559L8.43016 0.694744C8.64231 0.472172 8.9298 0.3479 9.23584 0.3479C9.54189 0.3479 9.83124 0.472546 10.0418 0.692802L17.832 8.85396C18.2551 9.29883 18.2391 10.003 17.7943 10.4278C17.3538 10.8523 16.6466 10.8364 16.2205 10.3901L10.3487 4.23744V20.008C10.3487 20.6223 9.85025 21.0791 9.27758 21.0791C8.7049 21.0791 8.12296 20.6247 8.12296 20.008V4.23744L2.25249 10.3908C1.82681 10.8359 1.11966 10.8498 0.677662 10.4279C0.232786 10.0013 0.216835 9.29642 0.639963 8.8559Z" fill="currentColor"/>
</svg>
