<svg width="87" height="87" viewBox="0 0 87 87" fill="none" xmlns="http://www.w3.org/2000/svg">
<g clip-path="url(#clip0_251_5330)">
<path opacity="0.41" fill-rule="evenodd" clip-rule="evenodd" d="M43.6121 0.548828C19.905 0.548828 0.696014 19.7579 0.696014 43.4649C0.696014 67.1719 19.905 86.381 43.6121 86.381C67.3191 86.381 86.5281 67.1719 86.5281 43.4649C86.5281 19.7579 67.3191 0.548828 43.6121 0.548828ZM60.9023 44.2696L32.5942 61.3947C31.9958 61.7661 31.2118 61.3122 31.2118 60.59V26.3397C31.2118 25.6176 31.9752 25.1637 32.5942 25.535L60.9023 42.6602C61.5007 43.011 61.5007 43.9188 60.9023 44.2696Z" fill="var(--color-gray-almostwhite)"/>
<path d="M30.91 25.807V61.3042C30.91 62.053 31.6859 62.521 32.3067 62.1466L61.0157 44.398C61.6245 44.0236 61.6245 43.0993 61.0157 42.7249L32.3067 24.9763C31.6859 24.5902 30.91 25.0582 30.91 25.807Z" fill="#E8EFF7"/>
</g>
<defs>
<clipPath id="clip0_251_5330">
<rect width="85.8321" height="85.8321" fill="white" transform="translate(0.696014 0.548828)"/>
</clipPath>
</defs>
</svg>
