<?xml version="1.0" standalone="no"?>
<!DOCTYPE svg PUBLIC "-//W3C//DTD SVG 20010904//EN"
 "http://www.w3.org/TR/2001/REC-SVG-20010904/DTD/svg10.dtd">
<svg version="1.0" xmlns="http://www.w3.org/2000/svg"
 width="880.000000pt" height="880.000000pt" viewBox="0 0 880.000000 880.000000"
 preserveAspectRatio="xMidYMid meet">
<metadata>
Created by potrace 1.14, written by Peter Selinger 2001-2017
</metadata>
<g transform="translate(0.000000,880.000000) scale(0.100000,-0.100000)"
fill="#000000" stroke="none">
<path d="M7177 6844 c-1 -1 -38 -5 -82 -8 -76 -6 -93 -8 -173 -21 -17 -3 -48
-8 -67 -10 -19 -3 -56 -10 -82 -16 -27 -6 -57 -12 -68 -14 -11 -2 -58 -13
-105 -25 -47 -12 -94 -23 -105 -26 -11 -2 -31 -8 -45 -13 -24 -9 -230 -74
-240 -75 -3 -1 -11 -5 -17 -9 -7 -5 -13 -6 -13 -2 0 3 -13 -1 -29 -10 -17 -8
-38 -16 -48 -18 -10 -2 -35 -11 -57 -20 -21 -9 -42 -17 -47 -17 -5 0 -17 -4
-27 -10 -9 -5 -66 -30 -127 -54 -60 -24 -137 -56 -170 -71 -33 -15 -76 -34
-95 -42 -65 -29 -494 -243 -585 -291 -412 -221 -911 -525 -1374 -839 -80 -54
-149 -100 -155 -102 -6 -2 -13 -7 -16 -11 -3 -3 -41 -31 -85 -60 -44 -30 -82
-57 -85 -60 -3 -3 -32 -23 -65 -45 -33 -22 -62 -43 -65 -46 -3 -3 -34 -26 -70
-51 -117 -81 -306 -219 -512 -373 -81 -60 -157 -117 -169 -125 -12 -8 -27 -20
-33 -25 -6 -6 -40 -33 -76 -59 -75 -57 -139 -107 -156 -121 -7 -5 -24 -19 -39
-30 -47 -34 -504 -393 -599 -471 -10 -9 -68 -56 -130 -105 -61 -49 -120 -97
-131 -107 -11 -10 -72 -61 -135 -112 -63 -52 -153 -126 -200 -164 -46 -39 -95
-80 -109 -91 -13 -11 -29 -24 -35 -30 -6 -5 -38 -32 -71 -60 -33 -27 -65 -54
-71 -60 -6 -5 -33 -28 -58 -50 -26 -21 -59 -49 -74 -62 -34 -29 -100 -85 -115
-98 -77 -64 -158 -134 -182 -157 -16 -15 -43 -39 -58 -53 -15 -14 -25 -25 -21
-25 4 0 -1 -9 -11 -20 -38 -43 -25 -137 26 -180 9 -8 28 -24 40 -34 12 -10 51
-32 86 -48 173 -78 464 -122 818 -121 138 0 490 16 490 22 0 1 27 4 60 6 33 3
83 8 110 11 28 3 64 7 82 9 17 2 51 7 75 10 24 4 52 8 63 10 11 1 44 6 74 10
30 3 63 9 75 11 12 2 35 6 51 9 17 3 44 7 60 10 17 3 44 8 60 10 17 2 53 9 80
15 28 6 59 12 70 14 11 2 34 6 50 9 17 4 44 9 60 12 52 9 75 14 83 19 4 2 27
7 52 11 25 4 47 8 51 10 3 2 21 7 40 10 19 3 70 15 114 26 44 11 93 22 109 25
16 3 33 7 38 10 4 3 16 7 25 9 65 12 446 118 591 163 34 11 62 19 62 17 0 -1
152 49 337 112 186 62 343 115 348 116 26 7 574 216 622 238 23 11 45 19 48
19 5 0 164 65 220 90 43 19 145 62 155 65 3 1 23 9 45 19 22 9 87 37 145 62
58 25 112 50 120 55 8 5 22 12 30 15 41 16 60 24 115 50 33 16 62 29 65 29 3
0 34 15 70 32 36 17 115 55 175 83 222 104 665 325 665 332 0 3 -17 -2 -37
-13 -59 -30 -372 -179 -377 -179 -3 0 -42 -17 -88 -39 -114 -53 -223 -101
-353 -155 -60 -26 -119 -51 -130 -56 -104 -48 -647 -248 -719 -265 -11 -2 -40
-11 -66 -20 -26 -9 -55 -17 -66 -19 -10 -2 -46 -11 -79 -21 -33 -9 -69 -18
-80 -20 -11 -2 -31 -5 -45 -8 -237 -47 -387 -44 -472 10 -91 56 -97 181 -18
352 28 58 126 229 139 241 3 3 21 28 40 55 33 48 199 264 211 275 3 3 28 32
55 65 28 33 55 65 60 71 393 440 841 891 1375 1384 57 52 120 111 140 130 39
37 205 189 280 255 24 22 54 49 66 60 23 22 122 110 169 150 90 78 201 135
264 135 90 0 151 -54 197 -175 9 -24 8 -20 19 -70 10 -47 12 -54 15 -57 2 -3
3 -16 16 -143 13 -135 7 -538 -11 -740 -2 -27 -7 -84 -10 -125 -4 -41 -8 -88
-10 -105 -2 -16 -7 -61 -10 -98 -4 -37 -8 -76 -10 -85 -1 -9 -6 -48 -9 -87 -4
-38 -9 -88 -12 -110 -5 -38 -9 -71 -18 -152 -8 -68 -17 -137 -21 -163 -2 -14
-6 -43 -9 -65 -3 -22 -8 -58 -11 -80 -4 -22 -8 -56 -10 -75 -2 -19 -6 -54 -9
-77 -13 -91 -17 -121 -21 -159 -2 -21 -6 -52 -9 -69 -3 -16 -7 -52 -11 -80 -3
-27 -7 -59 -9 -71 -2 -12 -7 -45 -11 -75 -3 -30 -8 -65 -10 -79 -5 -29 -16
-113 -20 -150 -1 -14 -6 -52 -10 -85 -4 -33 -9 -71 -10 -85 -1 -14 -4 -27 -5
-30 -1 -3 -2 -8 -2 -11 1 -3 -5 -55 -13 -115 -7 -60 -17 -140 -20 -179 -4 -38
-9 -90 -11 -115 -6 -61 -13 -143 -20 -215 -10 -122 -11 -360 -2 -381 12 -26
45 -42 76 -37 70 10 240 166 377 344 28 35 53 66 56 69 14 13 179 251 179 259
0 5 4 11 8 13 11 4 152 226 152 238 0 6 5 10 10 10 6 0 10 5 10 11 0 6 9 23
19 38 11 14 30 47 43 71 14 25 35 63 48 85 77 135 210 396 299 587 75 163 244
585 255 641 2 7 6 19 9 27 7 19 30 91 34 108 2 6 5 20 7 30 3 9 5 17 6 17 1 0
3 8 6 18 7 28 10 39 27 97 9 30 18 64 20 75 1 11 6 26 10 33 5 6 6 12 3 12 -2
0 0 15 5 33 5 17 11 43 14 57 3 14 7 36 10 50 6 29 32 189 39 240 25 174 26
491 1 603 -2 12 -7 36 -10 52 -14 86 -51 213 -67 233 -6 6 -8 12 -4 12 19 0
-151 283 -213 354 -268 305 -529 443 -936 492 -55 6 -342 13 -348 8z"/>
<path d="M6888 3904 c-38 -20 -36 -28 2 -9 17 9 30 18 30 20 0 7 -1 6 -32 -11z"/>
<path d="M7730 2160 c0 -5 5 -10 11 -10 5 0 7 5 4 10 -3 6 -8 10 -11 10 -2 0
-4 -4 -4 -10z"/>
<path d="M7797 2149 c7 -7 15 -10 18 -7 3 3 -2 9 -12 12 -14 6 -15 5 -6 -5z"/>
<path d="M7674 2124 c-18 -14 -18 -15 4 -4 12 6 22 13 22 15 0 8 -5 6 -26 -11z"/>
<path d="M7830 2130 c0 -5 5 -10 11 -10 5 0 7 5 4 10 -3 6 -8 10 -11 10 -2 0
-4 -4 -4 -10z"/>
<path d="M7855 2111 c-3 -5 -2 -12 3 -15 5 -3 9 1 9 9 0 17 -3 19 -12 6z"/>
<path d="M7643 2103 c4 -3 1 -13 -6 -22 -11 -14 -10 -14 5 -2 16 12 16 31 1
31 -4 0 -3 -3 0 -7z"/>
<path d="M7715 2080 c-16 -17 -23 -30 -16 -30 7 0 9 -5 4 -12 -14 -23 -11 -57
4 -51 8 3 11 9 6 12 -10 7 -11 26 -1 36 4 4 4 13 2 20 -3 7 5 20 17 29 13 8
20 18 18 21 -3 2 -18 -9 -34 -25z"/>
<path d="M7780 2094 c0 -6 9 -19 19 -28 14 -13 21 -14 27 -5 4 7 3 10 -4 5 -6
-3 -18 4 -26 16 -9 12 -16 18 -16 12z"/>
<path d="M7880 2085 c0 -5 5 -17 10 -25 5 -8 10 -10 10 -5 0 6 -5 17 -10 25
-5 8 -10 11 -10 5z"/>
<path d="M7625 2049 c-4 -6 -5 -12 -2 -15 2 -3 7 2 10 11 7 17 1 20 -8 4z"/>
<path d="M7880 1980 c0 -7 -17 -29 -37 -49 -22 -21 -28 -29 -13 -20 31 20 66
66 57 76 -4 3 -7 0 -7 -7z"/>
<path d="M7635 1971 c-6 -11 13 -26 22 -17 4 3 1 6 -6 6 -7 0 -9 5 -6 10 3 6
4 10 1 10 -3 0 -7 -4 -11 -9z"/>
<path d="M7715 1960 c3 -5 8 -10 11 -10 2 0 4 5 4 10 0 6 -5 10 -11 10 -5 0
-7 -4 -4 -10z"/>
<path d="M7785 1960 c-4 -6 -10 -8 -14 -6 -4 3 -13 0 -21 -5 -11 -7 -10 -8 8
-6 20 3 56 27 40 27 -4 0 -10 -5 -13 -10z"/>
<path d="M7670 1921 c0 -5 7 -12 16 -15 14 -5 15 -4 4 9 -14 17 -20 19 -20 6z"/>
<path d="M7710 1900 c0 -6 7 -10 15 -10 8 0 15 2 15 4 0 2 -7 6 -15 10 -8 3
-15 1 -15 -4z"/>
<path d="M7775 1890 c3 -5 8 -10 11 -10 2 0 4 5 4 10 0 6 -5 10 -11 10 -5 0
-7 -4 -4 -10z"/>
</g>
</svg>
